HIERARCHY
ROOT Torso
{
	OFFSET 0.000000 0.000000 0.000000
	CHANNELS 6 Xposition Yposition Zposition Zrotation Yrotation Xrotation
	JOINT LeftHip
	{
		OFFSET 0.000000 0.000000 0.000000
		CHANNELS 6 Xposition Yposition Zposition Zrotation Yrotation Xrotation
		JOINT LeftThigh
		{
			OFFSET 0.055000 0.010000 -0.025000
			CHANNELS 3 Zrotation Yrotation Xrotation
			JOINT LeftShank
			{
				OFFSET 0.000000 -0.015000 -0.110000
				CHANNELS 6 Xposition Yposition Zposition Zrotation Yrotation Xrotation
				JOINT LeftFoot
				{
					OFFSET 0.000000 0.005000 -0.110000
					CHANNELS 6 Xposition Yposition Zposition Zrotation Yrotation Xrotation
					JOINT LeftFootBase
					{
						OFFSET 0.000000 -0.030000 -0.035000
						CHANNELS 6 Xposition Yposition Zposition Zrotation Yrotation Xrotation
						End Site
						{
							OFFSET 0.000000 -0.090000 0.000000
						}
					}
				}
			}
		}
	}
	JOINT RightHip
	{
		OFFSET 0.000000 0.000000 0.000000
		CHANNELS 6 Xposition Yposition Zposition Zrotation Yrotation Xrotation
		JOINT RightThigh
		{
			OFFSET -0.055000 0.010000 -0.025000
			CHANNELS 3 Zrotation Yrotation Xrotation
			JOINT RightShank
			{
				OFFSET 0.000000 -0.015000 -0.110000
				CHANNELS 6 Xposition Yposition Zposition Zrotation Yrotation Xrotation
				JOINT RightFoot
				{
					OFFSET 0.000000 0.005000 -0.110000
					CHANNELS 6 Xposition Yposition Zposition Zrotation Yrotation Xrotation
					JOINT RightFootBase
					{
						OFFSET 0.000000 -0.030000 -0.035000
						CHANNELS 6 Xposition Yposition Zposition Zrotation Yrotation Xrotation
						End Site
						{
							OFFSET 0.000000 -0.090000 0.000000
						}
					}
				}
			}
		}
	}
	JOINT Back
	{
		OFFSET 0.000000 0.000000 0.000000
		CHANNELS 6 Xposition Yposition Zposition Xrotation Yrotation Zrotation
		JOINT Neck
		{
			OFFSET 0.000000 -0.000000 0.140000
			CHANNELS 3 Zrotation Yrotation Xrotation
			JOINT Head
			{
				OFFSET 0.000000 -0.000000 0.040000
				CHANNELS 6 Xposition Yposition Zposition Zrotation Yrotation Xrotation
				End Site
				{
					OFFSET 0.000000 -0.000000 0.065000
				}
			}
		}
		JOINT LeftShoulder
		{
			OFFSET 0.000000 -0.000000 0.140000
			CHANNELS 3 Zrotation Yrotation Xrotation
			JOINT LeftUpperarm
			{
				OFFSET 0.098000 -0.000000 0.025000
				CHANNELS 6 Xposition Yposition Zposition Zrotation Yrotation Xrotation
				JOINT LeftLowerarm
				{
					OFFSET 0.000000 -0.090000 0.009000
					CHANNELS 6 Xposition Yposition Zposition Zrotation Yrotation Xrotation
					End Site
					{
						OFFSET 0.000000 -0.100000 -0.000000
					}
				}
			}
		}
		JOINT RightShoulder
		{
			OFFSET 0.000000 -0.000000 0.140000
			CHANNELS 3 Zrotation Yrotation Xrotation
			JOINT RightUpperarm
			{
				OFFSET -0.098000 -0.000000 0.025000
				CHANNELS 6 Xposition Yposition Zposition Zrotation Yrotation Xrotation
				JOINT RightLowerarm
				{
					OFFSET 0.000000 -0.090000 0.009000
					CHANNELS 6 Xposition Yposition Zposition Zrotation Yrotation Xrotation
					End Site
					{
						OFFSET 0.000000 -0.100000 -0.000000
					}
				}
			}
		}
	}
}
MOTION
Frames: 4
Frame Time: 0.041667
0.000000 0.000000 0.000000 -1.641980 -3.783550 -5.188220 0.000000 0.000000 0.000000 -41.792999 27.596705 16.742556 -139.498827 0.019290 37.223179 -0.000000 -0.015000 -0.110000 0.000085 -0.000015 -33.615633 -0.000000 0.005000 -0.110000 -178.313577 25.594278 -53.488659 -0.000000 -0.030000 -0.035000 -7.802111 -0.217681 36.043018 0.000000 0.000000 0.000000 44.797066 -30.352282 16.833235 122.572608 -6.352310 70.181819 0.000000 -0.015000 -0.110000 -0.000060 0.000001 -61.513435 0.000000 0.005000 -0.110000 167.027235 -27.529276 -41.804002 0.000000 -0.030000 -0.035000 9.761167 0.970744 34.269060 0.000000 0.000000 0.000000 8.439409 4.886417 -1.415682 -2.990404 -2.168808 -3.174622 -0.000000 -0.000000 0.040000 0.986916 4.003817 21.170188 0.334583 -10.219666 -4.966858 0.098000 -0.000000 0.025000 150.248124 -3.833566 91.751823 0.000000 -0.090000 0.009000 -21.962767 5.546477 33.746199 -8.710060 5.909366 -6.040399 -0.098000 0.000000 0.025000 -155.423400 9.160681 91.328338 0.000000 -0.090000 0.009000 18.006667 -3.272620 26.154743 
0.000000 0.000000 0.000000 -1.491888 -3.745633 -5.120217 0.000000 0.000000 0.000000 -41.792999 27.596715 16.742556 -139.549576 0.015903 36.469488 -0.000000 -0.015000 -0.110000 0.000028 0.000054 -32.903948 0.000000 0.005000 -0.110000 -178.306555 25.594689 -53.479965 -0.000000 -0.030000 -0.035000 -7.896044 -0.149774 35.724731 0.000000 0.000000 0.000000 44.797070 -30.352292 16.833249 122.551940 -6.168461 70.237274 0.000000 -0.015000 -0.110000 -0.000007 -0.000096 -59.244801 -0.000000 0.005000 -0.110000 167.036962 -27.558405 -42.210562 -0.000000 -0.030000 -0.035000 9.111416 1.431728 36.444192 0.000000 0.000000 0.000000 8.542848 4.840106 -1.475632 -2.857710 -2.214675 -3.027091 0.000000 -0.000000 0.040000 1.126043 3.781631 20.698817 0.263919 -10.332304 -5.337970 0.098000 0.000000 0.025000 150.641011 -3.824756 91.650982 -0.000000 -0.090000 0.009000 -21.817328 5.450312 33.459095 -8.881888 5.740432 -6.384934 -0.098000 0.000000 0.025000 -155.305197 9.214433 91.044837 0.000000 -0.090000 0.009000 18.067751 -3.302705 26.269075 
0.000000 0.000000 0.000000 -1.238432 -4.009567 -5.050393 0.000000 0.000000 0.000000 -41.792992 27.596732 16.742556 -139.802784 -0.267150 35.920146 0.000000 -0.015000 -0.110000 -0.000002 -0.000004 -32.588646 -0.000000 0.005000 -0.110000 -178.436506 25.586222 -53.755453 0.000000 -0.030000 -0.035000 -8.059795 -0.033178 35.172708 0.000000 0.000000 0.000000 44.797063 -30.352302 16.833249 122.237505 -6.251778 70.354589 0.000000 -0.015000 -0.110000 0.000010 0.000007 -56.980829 0.000000 0.005000 -0.110000 166.934891 -27.575656 -42.389370 -0.000000 -0.030000 -0.035000 9.047988 1.478626 36.659271 0.000000 0.000000 0.000000 8.431067 4.987764 -1.512548 -3.000869 -2.140167 -2.844530 0.000000 -0.000000 0.040000 1.031830 3.618199 20.369007 0.179075 -10.212141 -5.283594 0.098000 0.000000 0.025000 150.158594 -3.671639 91.754753 -0.000000 -0.090000 0.009000 -21.928969 5.524036 33.679458 -8.953605 5.867579 -6.351021 -0.098000 0.000000 0.025000 -155.904846 9.253421 91.018049 0.000000 -0.090000 0.009000 18.147908 -3.342285 26.419054 
0.000000 0.000000 0.000000 -1.211249 -3.568004 -4.772109 0.000000 0.000000 0.000000 -41.792999 27.596732 16.742559 -139.592005 0.168814 35.574303 0.000000 -0.015000 -0.110000 0.000016 -0.000038 -32.042743 -0.000000 0.005000 -0.110000 -178.468362 25.584439 -53.793972 -0.000000 -0.030000 -0.035000 -8.043542 -0.044658 35.227589 0.000000 0.000000 0.000000 44.797073 -30.352288 16.833251 122.949224 -6.129281 70.423909 -0.000000 -0.015000 -0.110000 -0.000000 -0.000003 -54.643682 0.000000 0.005000 -0.110000 167.171202 -27.613512 -43.105447 0.000000 -0.030000 -0.035000 7.913837 2.384695 40.608948 0.000000 0.000000 0.000000 8.141942 4.494274 -1.461905 -3.141067 -2.072295 -3.043991 -0.000000 -0.000000 0.040000 0.856387 3.575845 20.589139 0.166635 -10.107321 -4.415848 0.098000 0.000000 0.025000 149.923335 -3.078862 92.601239 -0.000000 -0.090000 0.009000 -21.954750 5.541162 33.730493 -8.726240 6.104904 -5.519313 -0.098000 0.000000 0.025000 -156.423339 9.084739 91.964829 0.000000 -0.090000 0.009000 18.019443 -3.278951 26.178793 
